<svg xmlns="http://www.w3.org/2000/svg" xmlns:xlink="http://www.w3.org/1999/xlink" version="1.1" id="Layer_1" x="0px" y="0px" width="100px" height="100px" viewBox="0 0 100 100" enable-background="new 0 0 100 100" xml:space="preserve">
<g>
	<path d="M76.714,60.146h-7.831h-2.302l5.732-5.732c2.059-2.059,2.059-5.41,0-7.471c-0.998-0.998-2.325-1.547-3.736-1.547   s-2.738,0.549-3.736,1.547l-14.75,14.748c-0.246,0.246-0.469,0.52-0.657,0.805c-0.079,0.119-0.147,0.242-0.232,0.407   c-0.092,0.16-0.179,0.321-0.261,0.515c-0.059,0.146-0.104,0.295-0.16,0.494c-0.055,0.16-0.103,0.324-0.135,0.491   c-0.053,0.269-0.074,0.521-0.084,0.728l-0.02,0.298c0,0.107,0.008,0.212,0.021,0.318c0.01,0.199,0.03,0.444,0.08,0.698   c0.033,0.174,0.084,0.341,0.139,0.506l0.027,0.085c0.039,0.142,0.082,0.282,0.135,0.406c0.083,0.201,0.188,0.392,0.291,0.571   c0.059,0.116,0.121,0.231,0.201,0.352c0.201,0.299,0.426,0.572,0.66,0.803l14.747,14.747c0.999,0.998,2.325,1.547,3.734,1.547   c0.312,0,0.616-0.036,0.917-0.09c0.103-0.018,0.202-0.043,0.304-0.067c0.196-0.047,0.388-0.105,0.576-0.174   c0.112-0.041,0.224-0.078,0.332-0.126c0.251-0.112,0.496-0.239,0.729-0.39l0,0c0.312-0.202,0.608-0.432,0.878-0.701   c0.54-0.541,0.931-1.173,1.187-1.846c0.001,0,0.001,0,0.001,0c0.095-0.248,0.167-0.501,0.224-0.758   c0.03-0.14,0.046-0.28,0.064-0.422c0.022-0.159,0.039-0.318,0.046-0.479c0.007-0.137,0.01-0.273,0.006-0.41   c-0.007-0.2-0.028-0.399-0.058-0.598c-0.014-0.094-0.018-0.188-0.036-0.279c-0.057-0.283-0.143-0.561-0.246-0.832   c-0.035-0.092-0.078-0.18-0.118-0.27c-0.091-0.203-0.193-0.4-0.312-0.592c-0.05-0.082-0.098-0.164-0.153-0.244   c-0.178-0.26-0.374-0.511-0.604-0.741l-5.732-5.731h1.329h7.818h0.985c6.086,0,11.039,4.952,11.039,11.039   c0,2.913,2.369,5.283,5.282,5.283s5.282-2.37,5.282-5.283C98.317,69.84,88.626,60.146,76.714,60.146z"/>
	<path d="M43.924,77.137c-1.611,0.102-3.254,0.155-4.924,0.155c-16.742,0-30.868-5.233-35.291-12.392   C2.77,63.386,2.27,64.197,2.27,64.949c0,0.75,0,10.505,0,10.505c0,10.172,16.444,20.721,36.73,20.721   c7.54,0,14.547-1.459,20.377-3.812c-0.558-0.423-1.1-0.872-1.604-1.376L43.924,77.137z"/>
	<path d="M39,38.898c20.287,0,36.729-6.559,36.729-14.651v-6.609C75.729,10.01,59.287,3.825,39,3.825   c-20.286,0-36.73,6.185-36.73,13.813v6.609C2.27,32.339,18.714,38.898,39,38.898z"/>
	<path d="M38.672,67.157c-0.021-0.198-0.063-0.385-0.077-0.589c-0.035-0.382-0.053-0.764-0.053-1.14v-0.327l0.021-0.326l0.015-0.227   c0.039-0.717,0.122-1.394,0.248-2.037c0.098-0.508,0.227-1.01,0.391-1.527c0.104-0.357,0.244-0.796,0.443-1.291l0.036-0.09   l0.038-0.091c0.244-0.575,0.488-1.041,0.677-1.38c0.166-0.313,0.396-0.723,0.685-1.156c0.564-0.854,1.217-1.651,1.925-2.355   l6.186-6.186c-3.241,0.384-6.664,0.592-10.206,0.592c-16.816,0-30.999-4.637-35.354-10.966c-0.897-1.304-1.377-0.596-1.377-0.005   c0,0.591,0,12.361,0,12.361C2.27,59.615,18.537,67.076,38.672,67.157z"/>
</g>
</svg>