<svg xmlns="http://www.w3.org/2000/svg" xmlns:xlink="http://www.w3.org/1999/xlink" version="1.1" id="Capa_1" x="0px" y="0px" viewBox="0 0 100 100" preserveAspectRatio="xMidYMid" xml:space="preserve">
<g>
	<circle cx="50" cy="26.966" r="21.743"/>
	<g>
		<path d="M26.635,56.233c0,0-25.923,7.505-25.923,38.544c18.078,0,34.45,0,34.45,0S26.635,88.979,26.635,56.233z"/>
		<path d="M73.364,56.233c0,0,25.923,7.505,25.923,38.544c-18.078,0-34.45,0-34.45,0S73.364,88.979,73.364,56.233z"/>
	</g>
	<path d="M53.618,58.994c0.473-0.699,0.749-1.539,0.749-2.447c0-2.411-1.956-4.366-4.368-4.366   c-2.412,0-4.368,1.955-4.368,4.366c0,0.908,0.277,1.75,0.749,2.447l-2.716,24.091l6.309,10.737v0.087L50,93.865l0.026,0.044v-0.087   l6.31-10.737L53.618,58.994z"/>
</g>
</svg>