<svg xmlns="http://www.w3.org/2000/svg" xmlns:xlink="http://www.w3.org/1999/xlink" version="1.1" x="0px" y="0px" viewBox="-346 256 100 100" preserveAspectRatio="xMidYMid" xml:space="preserve">
<g id="Layer_3">
	<path d="M-321.114,314.5c0-1.253,1.016-2.271,2.268-2.271c1.252,0,2.268,1.018,2.268,2.271c0,1.251-1.016,2.267-2.268,2.267   C-320.098,316.767-321.114,315.751-321.114,314.5z"/>
	<circle cx="-318.846" cy="329.979" r="2.268"/>
	<circle cx="-318.846" cy="345.461" r="2.268"/>
	<g>
		<path d="M-278.071,270.205c-0.807,0.802-0.809,2.107-0.008,2.916c0.802,0.807,2.108,0.811,2.918,0.007    c0.806-0.803,0.808-2.109,0.005-2.916C-275.957,269.405-277.265,269.401-278.071,270.205z"/>
		<path d="M-273.923,266.077c-0.807,0.803-0.808,2.107-0.006,2.916c0.802,0.805,2.105,0.811,2.917,0.006    c0.805-0.803,0.808-2.108,0.005-2.915C-271.808,265.277-273.114,265.273-273.923,266.077z"/>
	</g>
	<g>
		<path d="M-329.351,272.467c-1.874,0-3.394,1.52-3.394,3.394v25.455h6.789v-25.455    C-325.956,273.986-327.476,272.467-329.351,272.467z"/>
		<path d="M-318.941,272.467c-1.874,0-3.394,1.52-3.394,3.394v25.455h6.788v-25.455    C-315.548,273.986-317.066,272.467-318.941,272.467z"/>
		<path d="M-308.532,272.467c-1.875,0-3.394,1.52-3.394,3.394v25.455h6.787v-25.455    C-305.139,273.986-306.658,272.467-308.532,272.467z"/>
	</g>
	<path d="M-346,256.214V356h64.845v-17.665h2.876V356h14.168v-17.665h2.873V356h15.023v-99.786H-346z M-279.328,264.867   c2.959-2.942,7.749-2.931,10.695,0.028c0.679,0.683,1.194,1.465,1.557,2.296l-3.277,3.26l3.119,3.134   c-0.359,0.72-0.831,1.396-1.434,1.995c-0.587,0.583-1.248,1.046-1.949,1.397l-3.131-3.147l-3.301,3.283l0.027,0.025   c-0.845-0.37-1.635-0.894-2.324-1.587C-282.292,272.593-282.284,267.809-279.328,264.867z M-295.354,352.606h-47.253v-13.124   h47.253V352.606z M-295.354,336.09h-47.253v-12.22h47.253V336.09z M-295.354,320.477h-47.253V308.71h47.179v-3.395h-47.179v-38.28   h11.972v3.96h2.568v-3.96h7.84v3.96h2.569v-3.96h7.84v3.96h2.57v-3.96h11.894V320.477z M-295.354,264.32h-11.894v-2.036h-2.57   v2.036h-7.84v-2.036h-2.569v2.036h-7.84v-2.036h-2.568v2.036h-11.972v-4.712h47.253V264.32z M-285.126,320.744   c0,0.793-0.644,1.436-1.437,1.436s-1.438-0.643-1.438-1.436v-20.191h2.874V320.744z M-285.126,298.636H-288v-16.975   c0-0.793,0.645-1.437,1.438-1.437s1.437,0.644,1.437,1.437V298.636z M-278.279,336.418h-2.876v-15.264   c0-0.793,0.644-1.437,1.437-1.437c0.794,0,1.439,0.644,1.439,1.437V336.418z M-261.238,336.418h-2.873v-15.264   c0-0.793,0.643-1.437,1.436-1.437c0.794,0,1.438,0.644,1.438,1.437V336.418z M-259.552,291.536h-9.239v2.697h8.185   c0.475,0,0.854,0.378,0.854,0.848c0,0.47-0.379,0.852-0.854,0.852h-8.185v2.694h7.871c0.329,0,0.81,0.293,0.81,0.809   c0,4.587-1.949,4.675-2.994,4.675c-3.42,0-3.523-1.899-5.687-4.157v0.782v12.227c2.66-0.355,3.176-5.793,5.687-5.793   c2.416,0,2.994,2.169,2.994,6.753c0,0.467-5.748,5.075-5.748,5.075l-10.369,0.037c0,0-5.488-4.649-5.488-5.111   c0-4.585,0.447-6.754,2.862-6.754c2.608,0,3.059,5.59,5.854,5.801v-12.234v-0.868c-2.795,2.288-3.245,4.243-5.854,4.243   c-1.173,0-2.862-0.089-2.862-4.675c0-0.515,0.48-0.812,0.811-0.812H-273v-2.691h-8.186c-0.471,0-0.854-0.382-0.854-0.853   c0-0.471,0.382-0.85,0.854-0.85H-273v-2.695h-9.214c-0.47,0-0.851-0.383-0.851-0.854c0-0.47,0.381-0.852,0.851-0.852H-273v-2.694   h-8.649c-0.467,0-0.848-0.38-0.848-0.853c0-0.47,0.379-0.853,0.848-0.853H-273v-2.693h-6.773c-0.476,0-0.853-0.381-0.853-0.852   c0-0.47,0.379-0.855,0.853-0.855H-273v-1.732h4.209v1.733h6.773c0.469,0,0.853,0.385,0.853,0.856c0,0.47-0.384,0.852-0.853,0.852   h-6.773v2.694h8.673c0.469,0,0.854,0.383,0.854,0.853c0,0.472-0.385,0.853-0.854,0.853h-8.673v2.693h9.239   c0.468,0,0.851,0.384,0.851,0.852C-258.701,291.154-259.084,291.536-259.552,291.536z M-253.831,320.744   c0,0.793-0.646,1.436-1.438,1.436s-1.437-0.643-1.437-1.436v-20.191h2.875V320.744z M-253.831,298.636h-2.875v-16.975   c0-0.793,0.644-1.437,1.437-1.437s1.438,0.644,1.438,1.437V298.636z"/>
	<ellipse transform="matrix(0.8685 -0.4956 0.4956 0.8685 -192.4476 -95.1384)" cx="-275.562" cy="315.199" rx="1.436" ry="2.601"/>
	
		<ellipse transform="matrix(-0.8685 -0.4956 0.4956 -0.8685 -654.0736 456.9064)" cx="-266.44" cy="315.199" rx="1.436" ry="2.601"/>
</g>
</svg>